<svg width="106" height="45" viewBox="0 0 106 45" fill="none" xmlns="http://www.w3.org/2000/svg">
<path d="M7.78125 45H0.53125C0.364583 45 0.28125 44.8958 0.28125 44.6875L0.40625 0.71875C0.40625 0.552083 0.489583 0.46875 0.65625 0.46875H13.5938C15.9062 0.46875 18.0312 1.03125 19.9688 2.15625C21.9062 3.28125 23.4479 4.79167 24.5938 6.6875C25.7604 8.58333 26.3438 10.7292 26.3438 13.125C26.3438 14.6875 26.1042 16.1042 25.625 17.375C25.1458 18.6458 24.5833 19.7188 23.9375 20.5938C23.3125 21.4688 22.7396 22.1146 22.2188 22.5312C24.5312 25.0938 25.6875 28.1042 25.6875 31.5625L25.75 44.6875C25.75 44.8958 25.6458 45 25.4375 45H18.1875C18.0208 45 17.9375 44.9375 17.9375 44.8125V31.5625C17.9375 30.0208 17.3958 28.6875 16.3125 27.5625C15.2292 26.4375 13.8958 25.875 12.3125 25.875H8.09375L8.03125 44.6875C8.03125 44.8958 7.94792 45 7.78125 45ZM13.5938 8.125H8.09375V18.1875H13.5938C14.9062 18.1875 16.0729 17.6979 17.0938 16.7188C18.1354 15.7396 18.6562 14.5417 18.6562 13.125C18.6562 11.7708 18.1562 10.6042 17.1562 9.625C16.1562 8.625 14.9688 8.125 13.5938 8.125ZM38.7188 45H31.4688C31.2604 45 31.1562 44.8958 31.1562 44.6875L31.2188 0.71875C31.2188 0.552083 31.3021 0.46875 31.4688 0.46875H38.6562C38.8229 0.46875 38.9062 0.552083 38.9062 0.71875L38.9688 44.6875C38.9688 44.8958 38.8854 45 38.7188 45ZM49.8125 45H42.625C42.4792 45 42.4167 44.8958 42.4375 44.6875L49.75 21.8438L42.5625 0.71875C42.5208 0.552083 42.5833 0.46875 42.75 0.46875H49.9375C50.1458 0.46875 50.2708 0.552083 50.3125 0.71875L54.5938 15.9375L58.9375 0.71875C58.9792 0.552083 59.1146 0.46875 59.3438 0.46875H66.4375C66.6042 0.46875 66.6667 0.552083 66.625 0.71875L59.4688 21.7812L66.6875 44.6875C66.7708 44.8958 66.7083 45 66.5 45H59.3438C59.1562 45 59.0208 44.8958 58.9375 44.6875L54.5938 28.1562L50.1875 44.6875C50.1667 44.8958 50.0417 45 49.8125 45ZM68.3125 44.6875L76.25 0.71875C76.2917 0.552083 76.3958 0.46875 76.5625 0.46875H85.8438C86.0104 0.46875 86.1146 0.552083 86.1562 0.71875L93.7812 44.6875C93.8021 44.8958 93.7188 45 93.5312 45H86.4375C86.2292 45 86.1146 44.8958 86.0938 44.6875L85.4062 40H76.6875L76 44.6875C75.9792 44.8958 75.875 45 75.6875 45H68.5625C68.3958 45 68.3125 44.8958 68.3125 44.6875ZM80.8438 15.1875L77.9688 33.1562H84.125L81.5 15.1875L81.125 12.8125L80.8438 15.1875ZM103.812 33.2188H99.4375C99.25 33.2188 99.1458 33.1146 99.125 32.9062L97.7812 18.1875V0.78125C97.7812 0.572917 97.8646 0.46875 98.0312 0.46875H105.219C105.427 0.46875 105.531 0.572917 105.531 0.78125L105.469 18.1875L104.125 32.9062C104.104 33.1146 104 33.2188 103.812 33.2188ZM105.219 45H98.0312C97.8646 45 97.7812 44.8958 97.7812 44.6875V37.7188C97.7812 37.5312 97.8646 37.4375 98.0312 37.4375H105.219C105.385 37.4375 105.469 37.5312 105.469 37.7188V44.6875C105.469 44.8958 105.385 45 105.219 45Z" fill="white"/>
</svg>
